<?xml version="1.0" standalone="no"?>
<!DOCTYPE svg PUBLIC "-//W3C//DTD SVG 20010904//EN"
 "http://www.w3.org/TR/2001/REC-SVG-20010904/DTD/svg10.dtd">
<svg version="1.0" xmlns="http://www.w3.org/2000/svg"
 width="512.000000pt" height="512.000000pt" viewBox="0 0 512.000000 512.000000"
 preserveAspectRatio="xMidYMid meet">
<metadata>
Created by potrace 1.14, written by Peter Selinger 2001-2017
</metadata>
<g transform="translate(0.000000,512.000000) scale(0.100000,-0.100000)"
fill="#000000" stroke="none">
<path d="M2378 5115 c-2 -3 -38 -7 -79 -9 -41 -2 -74 -5 -74 -6 0 -2 -24 -7
-72 -13 -31 -5 -134 -25 -213 -42 -117 -26 -360 -116 -507 -188 -550 -270
-990 -736 -1230 -1302 -51 -119 -126 -347 -137 -416 -3 -20 -8 -42 -10 -50 -3
-8 -8 -31 -11 -53 -3 -21 -7 -41 -9 -45 -4 -6 -12 -67 -26 -201 -8 -81 -5
-462 5 -520 3 -19 12 -75 20 -125 53 -325 176 -654 345 -925 95 -151 151 -226
270 -360 99 -111 111 -122 215 -216 393 -350 904 -575 1435 -631 137 -15 556
-7 612 11 7 3 31 7 53 10 151 19 424 96 586 166 698 303 1213 863 1445 1575
31 97 66 233 78 305 3 19 8 47 11 63 11 60 14 79 21 154 10 100 11 416 2 513
-34 339 -134 666 -296 963 -379 700 -1054 1181 -1837 1312 -55 10 -111 19
-125 21 -38 6 -466 14 -472 9z"/>
</g>
</svg>
